<svg xml:space="preserve" style="max-height: 500px" viewBox="562.3342175066313 1018.5676392572944 6854.111405835543 1973.4748010610078" y="0px" x="0px" xmlns:xlink="http://www.w3.org/1999/xlink" xmlns="http://www.w3.org/2000/svg" id="Layer_1" version="1.0" width="6854.111405835543" height="1973.4748010610078">
<style type="text/css">
	.st0{fill:none;}
	.st1{fill:#FFFFFF;}
	.st2{fill:#242424;}
	.st3{fill:#39B135;}
	.st4{fill:#3DAD38;}
	.st5{fill:#252525;}
</style>
<g>
	<g>
		<polygon points="1816.89,2519.88 1816.9,2519.85 1816.86,2519.91" class="st0"/>
		<polygon points="1817.01,2518.39 1816.99,2518.35 1817.02,2518.46" class="st0"/>
		<polygon points="1632.79,1482.58 1632.81,1482.53 1632.49,1482.97" class="st0"/>
		<polygon points="1055.89,2520.81 1056.15,2520.81 1055.67,2520.73" class="st0"/>
		<polygon points="1632.53,1480.46 1632.5,1480.44 1632.59,1480.55" class="st0"/>
		<polygon points="1055.3,2520.6 1055.58,2520.7 1055.21,2520.53" class="st0"/>
		<polygon points="2090.94,1950.76 2090.55,1951.06 2090.95,1950.75" class="st0"/>
		<polygon points="2091.06,2519.33 2091.09,2519.34 2090.55,2518.94" class="st0"/>
		<polygon points="2094.14,1951.31 2094.04,1951.14 2093.7,1950.8 2093.27,1950.59 2093.24,1950.58 2093.78,1950.89" class="st0"/>
		<polygon points="2092.76,2519.58 2091.96,2519.62 2091.81,2519.58 2091.62,2519.58 2092.25,2519.67 2092.89,2519.58 &#10;&#9;&#9;&#9;2093.48,2519.33 2093.99,2518.9 2093.53,2519.28" class="st0"/>
		<polygon points="2091.33,2519.45 2091.62,2519.58 2091.62,2519.58 2091.81,2519.58" class="st0"/>
		<polygon points="2092.51,1950.38 2093.09,1950.52 2092.81,1950.42 2092.3,1950.33 2091.83,1950.38 2091.36,1950.55 &#10;&#9;&#9;&#9;2091.33,1950.56 2091.79,1950.42" class="st0"/>
		<polygon points="2094.5,1951.9 2094.46,1951.83 2094.51,1951.92" class="st0"/>
		<polygon points="1054.68,2520.02 1054.79,2520.22 1055.09,2520.44 1054.83,2520.22" class="st0"/>
		<polygon points="1632.86,1482.41 1632.96,1482.16 1633.04,1481.74 1633,1481.5 1633,1481.95" class="st0"/>
		<polygon points="1208.02,1909.01 1208.4,1909.56 1208.02,1908.97 1207.85,1908.35 1207.85,1908.37" class="st0"/>
		<polygon points="1816.42,2520.47 1816.51,2520.36 1816.34,2520.51" class="st0"/>
		<polygon points="1815.36,2520.81 1815.91,2520.73 1816.33,2520.52 1815.87,2520.73" class="st0"/>
		<polygon points="1632.45,1480.39 1632.19,1480.16 1632.19,1480.16 1632.15,1480.16" class="st0"/>
		<polygon points="1632.19,1480.16 1631.84,1480.02 1632.15,1480.16" class="st0"/>
		<polygon points="2094.46,1895.12 2094.08,1895.51 2093.57,1895.76 2093.02,1895.85 2092.51,1895.85 2091.96,1895.72 &#10;&#9;&#9;&#9;2091.57,1895.51 2091.23,1895.21 1996.66,1800.67 1996.27,1800.38 1995.85,1800.12 1995.43,1799.99 1994.96,1799.95 &#10;&#9;&#9;&#9;1994.45,1799.99 1994.02,1800.16 1993.6,1800.38 1993.22,1800.67 1684.6,2109.34 1684,2109.8 1683.37,2110.18 1682.6,2110.4 &#10;&#9;&#9;&#9;1681.88,2110.48 1681.12,2110.4 1680.39,2110.18 1679.71,2109.8 1679.12,2109.34 1479.9,1910.07 1478.97,1908.93 1478.24,1907.61 &#10;&#9;&#9;&#9;1477.82,1906.17 1477.65,1904.68 1477.82,1903.19 1478.24,1901.75 1478.97,1900.39 1479.9,1899.24 1785.08,1594.11 &#10;&#9;&#9;&#9;1785.76,1593.26 1786.31,1592.28 1786.61,1591.22 1786.73,1590.16 1786.61,1589.05 1786.31,1587.99 1785.76,1587.01 &#10;&#9;&#9;&#9;1785.08,1586.17 1683.49,1484.75 1682.69,1483.9 1682.09,1483.14 1681.71,1482.46 1681.54,1481.86 1681.54,1481.27 &#10;&#9;&#9;&#9;1681.58,1480.8 1681.75,1480.38 1681.96,1480.08 1682.52,1479.74 1683.24,1479.65 1632.19,1480.16 1632.19,1480.16 &#10;&#9;&#9;&#9;1632.45,1480.39 1632.49,1480.42 1632.5,1480.44 1632.53,1480.46 1632.59,1480.55 1632.79,1480.8 1633,1481.35 1633,1481.5 &#10;&#9;&#9;&#9;1633.04,1481.74 1632.96,1482.16 1632.86,1482.41 1632.83,1482.5 1632.81,1482.53 1632.79,1482.58 1632.49,1482.97 &#10;&#9;&#9;&#9;1208.4,1907.02 1207.97,1907.65 1207.85,1908.35 1208.02,1908.97 1208.4,1909.56 1816.59,2517.75 1816.93,2518.18 &#10;&#9;&#9;&#9;1816.99,2518.35 1817.01,2518.39 1817.02,2518.46 1817.1,2518.69 1817.1,2519.16 1817.1,2519.2 1816.97,2519.71 1816.9,2519.85 &#10;&#9;&#9;&#9;2091.62,2519.58 2091.62,2519.58 2091.33,2519.45 2091.19,2519.41 2091.09,2519.34 2091.06,2519.33 2090.55,2518.94 &#10;&#9;&#9;&#9;1809.2,2236.7 1808.9,2236.36 1808.69,2235.93 1808.56,2235.47 1808.48,2235 1808.56,2234.53 1808.69,2234.07 1808.9,2233.64 &#10;&#9;&#9;&#9;1809.2,2233.3 2090.55,1951.06 2090.94,1950.76 2090.95,1950.75 2091.11,1950.63 2091.33,1950.56 2091.36,1950.55 &#10;&#9;&#9;&#9;2091.83,1950.38 2092.3,1950.33 2092.81,1950.42 2093.09,1950.52 2093.19,1950.55 2093.24,1950.58 2093.27,1950.59 2093.7,1950.8 &#10;&#9;&#9;&#9;2094.04,1951.14 2094.14,1951.31 2094.25,1951.44 2094.46,1951.83 2094.5,1951.9 2094.51,1951.92 2094.59,1952.07 &#10;&#9;&#9;&#9;2094.67,1952.75 2094.97,1894.19 2094.8,1894.7" class="st1"/>
		<polygon points="1817.02,2518.46 1816.99,2518.35 1816.59,2517.75 1208.4,1909.56 1208.02,1909.01 1207.85,1908.37 &#10;&#9;&#9;&#9;1207.85,1908.35 1207.85,1908.33 1207.97,1907.61 1208.4,1907.02 1632.49,1482.97 1632.81,1482.53 1632.86,1482.41 1633,1481.95 &#10;&#9;&#9;&#9;1633,1481.5 1632.96,1481.27 1632.79,1480.84 1632.59,1480.55 1632.5,1480.44 1632.45,1480.39 1632.15,1480.16 1631.84,1480.02 &#10;&#9;&#9;&#9;1631.77,1479.99 1631.26,1479.91 1056.15,1479.91 1055.47,1480.04 1054.87,1480.42 1054.49,1481.01 1054.37,1481.69 &#10;&#9;&#9;&#9;1054.37,2519.03 1054.49,2519.67 1054.49,2519.67 1054.49,2519.67 1054.68,2520.02 1054.83,2520.22 1055.09,2520.44 &#10;&#9;&#9;&#9;1055.21,2520.53 1055.58,2520.7 1055.67,2520.73 1056.15,2520.81 1815.36,2520.81 1815.87,2520.73 1816.33,2520.52 &#10;&#9;&#9;&#9;1816.34,2520.51 1816.51,2520.36 1816.86,2519.91 1816.9,2519.85 1817.1,2519.16" class="st2"/>
		<polygon points="1054.49,2519.67 1054.49,2519.67 1054.49,2519.67" class="st2"/>
		<polygon points="1816.34,2520.52 1816.34,2520.51 1816.33,2520.52" class="st2"/>
		<polygon points="1632.83,1482.5 1632.86,1482.41 1632.81,1482.53" class="st2"/>
		<polygon points="1632.96,1481.27 1633,1481.5 1633,1481.35 1632.79,1480.8 1632.59,1480.55 1632.79,1480.84" class="st2"/>
		<polygon points="1632.49,1480.42 1632.45,1480.39 1632.5,1480.44" class="st2"/>
		<polygon points="1054.41,2519.45 1054.49,2519.67 1054.37,2519.03" class="st2"/>
		<polygon points="1816.93,2518.18 1816.59,2517.75 1816.99,2518.35" class="st2"/>
		<polygon points="1055.17,2520.52 1055.21,2520.53 1055.09,2520.44" class="st2"/>
		<polygon points="1055.64,2520.73 1055.67,2520.73 1055.58,2520.7" class="st2"/>
		<polygon points="1054.58,2519.88 1054.68,2520.02 1054.49,2519.67" class="st2"/>
		<polygon points="1631.84,1480.02 1631.68,1479.95 1631.26,1479.91 1631.77,1479.99" class="st2"/>
		<polygon points="1816.72,2520.18 1816.86,2519.91 1816.51,2520.36" class="st2"/>
		<polygon points="1817.1,2518.69 1817.02,2518.46 1817.1,2519.16" class="st2"/>
		<polygon points="1207.85,1908.33 1207.85,1908.35 1207.97,1907.65 1208.4,1907.02 1207.97,1907.61" class="st2"/>
		<polygon points="1817.1,2519.2 1817.1,2519.16 1816.9,2519.85 1816.97,2519.71" class="st2"/>
		<polygon points="2094.67,1482.46 2094.21,1481.57 2093.57,1480.76 2092.81,1480.12 2091.91,1479.65 2090.94,1479.36 &#10;&#9;&#9;&#9;2089.96,1479.27 1985.53,1479.19 1882.93,1479.23 1782.19,1479.4 1683.24,1479.65 1682.52,1479.74 1681.96,1480.08 &#10;&#9;&#9;&#9;1681.75,1480.38 1681.58,1480.8 1681.54,1481.27 1681.54,1481.86 1681.71,1482.46 1682.09,1483.14 1682.69,1483.9 &#10;&#9;&#9;&#9;1683.49,1484.75 1785.08,1586.17 1785.76,1587.01 1786.31,1587.99 1786.61,1589.05 1786.73,1590.16 1786.61,1591.22 &#10;&#9;&#9;&#9;1786.31,1592.28 1785.76,1593.26 1785.08,1594.11 1479.9,1899.24 1478.97,1900.39 1478.24,1901.75 1477.82,1903.19 &#10;&#9;&#9;&#9;1477.65,1904.68 1477.82,1906.17 1478.24,1907.61 1478.97,1908.93 1479.9,1910.07 1679.12,2109.34 1679.71,2109.8 &#10;&#9;&#9;&#9;1680.39,2110.18 1681.12,2110.4 1681.88,2110.48 1682.6,2110.4 1683.37,2110.18 1684,2109.8 1684.6,2109.34 1993.22,1800.67 &#10;&#9;&#9;&#9;1993.6,1800.38 1994.02,1800.16 1994.45,1799.99 1994.96,1799.95 1995.43,1799.99 1995.85,1800.12 1996.27,1800.38 &#10;&#9;&#9;&#9;1996.66,1800.67 2091.23,1895.21 2091.57,1895.51 2091.96,1895.72 2092.51,1895.85 2093.02,1895.85 2093.57,1895.76 &#10;&#9;&#9;&#9;2094.08,1895.51 2094.46,1895.12 2094.8,1894.7 2094.97,1894.19 2095.06,1893.64 2095.06,1484.41 2094.97,1483.39" class="st3"/>
		<polygon points="2094.46,1951.83 2094.14,1951.31 2093.78,1950.89 2093.24,1950.58 2093.09,1950.52 2092.51,1950.38 &#10;&#9;&#9;&#9;2091.79,1950.42 2091.33,1950.56 2090.95,1950.75 2090.55,1951.06 1809.2,2233.3 1808.9,2233.64 1808.69,2234.07 1808.56,2234.53 &#10;&#9;&#9;&#9;1808.48,2235 1808.56,2235.47 1808.69,2235.93 1808.9,2236.36 1809.2,2236.7 2090.55,2518.94 2091.09,2519.34 2091.33,2519.45 &#10;&#9;&#9;&#9;2091.81,2519.58 2092.76,2519.58 2093.53,2519.28 2093.99,2518.9 2094.38,2518.39 2094.59,2517.8 2094.67,2517.25 &#10;&#9;&#9;&#9;2094.67,1952.75 2094.51,1951.92" class="st2"/>
		<polygon points="2092.76,2519.58 2091.81,2519.58 2091.96,2519.62" class="st2"/>
		<polygon points="2091.11,1950.63 2090.95,1950.75 2091.33,1950.56" class="st2"/>
		<polygon points="2091.19,2519.41 2091.33,2519.45 2091.09,2519.34" class="st2"/>
		<polygon points="2094.38,2518.39 2094.59,2517.84 2094.67,2517.25 2094.59,2517.8" class="st2"/>
		<polygon points="2093.19,1950.55 2093.09,1950.52 2093.24,1950.58" class="st2"/>
		<polygon points="2094.51,1951.92 2094.67,1952.75 2094.59,1952.07" class="st2"/>
		<polygon points="2094.25,1951.44 2094.14,1951.31 2094.46,1951.83" class="st2"/>
	</g>
	<g>
		<path d="M2479.56,2422.12H2324.4l-1.66-0.21l-1.56-0.41l-1.45-0.83l-1.24-1.04l-1.04-1.24l-0.83-1.45l-0.41-1.56&#10;&#9;&#9;&#9;l-0.21-1.66v-843.41l0.21-1.66l0.41-1.56l0.83-1.45l1.04-1.24l1.24-1.04l1.45-0.83l1.56-0.41l1.66-0.21h567.84l1.66,0.21&#10;&#9;&#9;&#9;l1.56,0.41l1.45,0.83l1.24,1.04l1.04,1.24l0.83,1.45l0.42,1.56l0.21,1.66v132.65l-0.21,1.66l-0.42,1.56l-0.83,1.45l-1.04,1.24&#10;&#9;&#9;&#9;l-1.24,1.04l-1.45,0.83l-1.56,0.41l-1.66,0.21h-395.67l-1.66,0.21l-1.56,0.41l-1.45,0.83l-1.24,1.04l-1.04,1.24l-0.83,1.45&#10;&#9;&#9;&#9;l-0.41,1.56l-0.21,1.66v194.67l0.21,1.66l0.41,1.56l0.83,1.45l1.04,1.24l1.24,1.04l1.45,0.83l1.56,0.41l1.66,0.21h333.65&#10;&#9;&#9;&#9;l1.66,0.21l1.56,0.41l1.45,0.83l1.24,1.04l1.04,1.24l0.83,1.45l0.41,1.56l0.21,1.66v126.22l-0.21,1.66l-0.41,1.56l-0.83,1.45&#10;&#9;&#9;&#9;l-1.04,1.24l-1.24,1.04l-1.45,0.83l-1.56,0.42l-1.66,0.21h-333.86l-1.66,0.21l-1.56,0.41l-1.45,0.83l-1.24,1.04l-1.04,1.24&#10;&#9;&#9;&#9;l-0.83,1.45l-0.41,1.56l-0.21,1.66v339.46l-0.21,1.66l-0.42,1.56l-0.83,1.45l-1.04,1.24l-1.24,1.04l-1.45,0.83l-1.56,0.41&#10;&#9;&#9;&#9;L2479.56,2422.12z" class="st4"/>
		<path d="M4714,2114.4l0.73,0.62l1.04,0.21l1.04-0.41l0.62-0.73l0.31-1.04v-544.5l0.1-1.24l0.41-1.14l0.52-1.14&#10;&#9;&#9;&#9;l0.83-0.93l0.93-0.83l1.04-0.52l1.14-0.41l1.24-0.1h159.2l1.97,0.41l1.66,1.14l1.14,1.66l0.41,1.97v849.84l-0.41,1.87l-1.04,1.56&#10;&#9;&#9;&#9;l-1.56,1.04l-1.87,0.41h-60.05l-62.85,0.62l-3.84-0.21l0,0l-3.73-0.73l-3.73-1.14l-3.63-1.66l-3.63-2.07l-3.53-2.59l-3.53-3.11&#10;&#9;&#9;&#9;l-3.42-3.63l-3.32-4.04l-154.22-197.68l-256.18-327.01l-0.73-0.62l-0.93-0.1l-1.04,0.31l-0.73,0.73l-0.21,1.04v533.51l-0.1,1.56&#10;&#9;&#9;&#9;l-0.52,1.45l-0.62,1.35l-1.04,1.14l-1.14,0.93l-1.35,0.73l-1.45,0.52l-1.45,0.1l0,0h-156.09l-1.14-0.1l-1.14-0.31l-1.04-0.62&#10;&#9;&#9;&#9;l-0.93-0.73l-0.73-0.93l-0.62-1.04l-0.31-1.14l-0.1-1.14V1567.3l0.41-1.97l1.14-1.66l1.66-1.14l2.07-0.41h128.81l3.53,0.41&#10;&#9;&#9;&#9;l3.42,1.24l3.01,1.87l2.49,2.59L4714,2114.4z" class="st5"/>
		<path d="M3586.2,2102.78l-0.41,16.49l-1.24,16.39l-1.97,16.28l-2.8,16.28l-3.63,16.08l-4.36,15.76l-5.19,15.66&#10;&#9;&#9;&#9;l-5.91,15.35l-6.64,15.04l-7.47,14.73l-8.09,14.31l-8.82,13.9l-9.44,13.48l-10.16,12.96l-10.79,12.45l-11.3,11.93l-11.93,11.3&#10;&#9;&#9;&#9;l-12.45,10.79l-12.96,10.16l-13.48,9.44l-13.9,8.82l-14.31,8.09l-14.73,7.47l-15.04,6.64l-15.35,5.91l-15.66,5.19l-15.76,4.36&#10;&#9;&#9;&#9;l-16.08,3.63l-16.28,2.8l-16.28,1.97l-16.39,1.24l-16.49,0.41l-16.49-0.41l-16.39-1.24l-16.28-1.97l-16.28-2.8l-16.08-3.63&#10;&#9;&#9;&#9;l-15.76-4.36l-15.66-5.19l-15.35-5.91l-15.04-6.64l-14.73-7.47l-14.31-8.09l-13.9-8.82l-13.48-9.44l-12.96-10.16l-12.45-10.79&#10;&#9;&#9;&#9;l-11.93-11.3l-11.3-11.93l-10.79-12.45l-10.16-12.96l-9.44-13.48l-8.82-13.9l-8.09-14.31l-7.47-14.73l-6.64-15.04l-5.91-15.35&#10;&#9;&#9;&#9;l-5.19-15.66l-4.36-15.76l-3.63-16.08l-2.8-16.28l-1.97-16.28l-1.24-16.39l-0.41-16.49l0.41-16.49l1.24-16.39l1.97-16.28&#10;&#9;&#9;&#9;l2.8-16.28l3.63-16.08l4.36-15.76l5.19-15.66l5.91-15.35l6.64-15.04l7.47-14.73l8.09-14.31l8.82-13.9l9.44-13.48l10.16-12.96&#10;&#9;&#9;&#9;l10.79-12.45l11.3-11.93l11.93-11.3l12.45-10.79l12.96-10.16l13.48-9.44l13.9-8.82l14.31-8.09l14.73-7.47l15.04-6.64l15.35-5.91&#10;&#9;&#9;&#9;l15.66-5.19l15.76-4.36l16.08-3.63l16.28-2.8l16.28-1.97l16.39-1.24l16.49-0.41l16.49,0.41l16.39,1.24l16.28,1.97l16.28,2.8&#10;&#9;&#9;&#9;l16.08,3.63l15.76,4.36l15.66,5.19l15.35,5.91l15.04,6.64l14.73,7.47l14.31,8.09l13.9,8.82l13.48,9.44l12.96,10.16l12.45,10.79&#10;&#9;&#9;&#9;l11.93,11.3l11.3,11.93l10.79,12.45l10.16,12.96l9.44,13.48l8.82,13.9l8.09,14.31l7.47,14.73l6.64,15.04l5.91,15.35l5.19,15.66&#10;&#9;&#9;&#9;l4.36,15.76l3.63,16.08l2.8,16.28l1.97,16.28l1.24,16.39L3586.2,2102.78z M3250.58,1912.15l-7.96,0.23l-7.95,0.69l-7.91,1.14&#10;&#9;&#9;&#9;l-7.85,1.59l-7.77,2.04l-7.68,2.48l-7.56,2.92l-7.43,3.35l-7.28,3.78l-7.12,4.19l-6.93,4.59l-6.73,4.98l-6.51,5.36l-6.28,5.73&#10;&#9;&#9;&#9;l-6.03,6.09l-5.77,6.42l-5.49,6.75l-5.2,7.05l-4.9,7.34l-4.59,7.62l-4.26,7.87l-3.93,8.11l-3.58,8.32l-3.23,8.52l-2.87,8.69&#10;&#9;&#9;&#9;l-2.5,8.85l-2.12,8.98l-1.75,9.09l-1.36,9.18l-0.98,9.25l-0.59,9.29l-0.2,9.31l0.2,9.31l0.59,9.29l0.98,9.25l1.36,9.18l1.75,9.09&#10;&#9;&#9;&#9;l2.12,8.98l2.5,8.85l2.87,8.69l3.23,8.52l3.58,8.32l3.93,8.11l4.26,7.87l4.59,7.62l4.9,7.34l5.2,7.05l5.49,6.75l5.77,6.42&#10;&#9;&#9;&#9;l6.03,6.08l6.28,5.73l6.51,5.36l6.73,4.98l6.93,4.59l7.12,4.19l7.28,3.78l7.43,3.35l7.56,2.92l7.68,2.49l7.77,2.04l7.85,1.59&#10;&#9;&#9;&#9;l7.91,1.14l7.95,0.69l7.96,0.23l0,0l7.96-0.23l7.95-0.69l7.91-1.14l7.85-1.59l7.77-2.04l7.68-2.49l7.56-2.92l7.43-3.35l7.28-3.78&#10;&#9;&#9;&#9;l7.12-4.19l6.93-4.59l6.73-4.98l6.51-5.36l6.28-5.73l6.03-6.08l5.77-6.42l5.49-6.75l5.2-7.05l4.9-7.34l4.59-7.62l4.26-7.87&#10;&#9;&#9;&#9;l3.93-8.11l3.58-8.32l3.23-8.52l2.87-8.69l2.5-8.85l2.13-8.98l1.75-9.09l1.36-9.18l0.98-9.25l0.59-9.29l0.2-9.31l-0.2-9.31&#10;&#9;&#9;&#9;l-0.59-9.29l-0.98-9.25l-1.36-9.18l-1.75-9.09l-2.13-8.98l-2.5-8.85l-2.87-8.69l-3.23-8.52l-3.58-8.32l-3.93-8.11l-4.26-7.87&#10;&#9;&#9;&#9;l-4.59-7.62l-4.9-7.34l-5.2-7.05l-5.49-6.75l-5.77-6.42l-6.03-6.09l-6.28-5.73l-6.51-5.36l-6.73-4.98l-6.93-4.59l-7.12-4.19&#10;&#9;&#9;&#9;l-7.28-3.78l-7.43-3.35l-7.56-2.92l-7.68-2.48l-7.77-2.04l-7.85-1.59l-7.91-1.14l-7.95-0.69L3250.58,1912.15z" class="st4"/>
		<path d="M3826.2,1790.6v114.81l0.1,1.04l0.52,0.93l0.62,0.83l0.83,0.52l0.93,0.31l1.04,0.1l0.93-0.21l0.93-0.42&#10;&#9;&#9;&#9;l0.73-0.73l0.52-0.83l4.87-9.85l5.19-9.54l5.39-9.23l5.81-8.82l6.22-8.5l6.43-8.3l6.64-7.78l7.05-7.47l7.26-7.16l7.57-6.64&#10;&#9;&#9;&#9;l7.88-6.33l8.09-5.91l8.3-5.5l8.5-5.08l8.71-4.67l9.02-4.25l6.02-2.49l6.12-2.39l6.22-2.18l6.33-1.97l6.33-1.76l6.33-1.56&#10;&#9;&#9;&#9;l6.53-1.35l6.53-1.24l13.28-1.76l13.48-0.93l13.59-0.1l13.9,0.62l1.56,0.31l1.45,0.52l1.35,0.83l1.14,1.04l1.04,1.24l0.62,1.35&#10;&#9;&#9;&#9;l0.52,1.56l0.1,1.56v137.11v0.31l-0.21,1.66l-0.62,1.66l-0.83,1.45l-1.14,1.35l-1.45,1.04l-1.56,0.73l-1.66,0.31l-1.76,0.1&#10;&#9;&#9;&#9;l-8.61-0.41l-8.5-0.21l-8.4,0.1l-8.19,0.31l-8.09,0.52l-7.99,0.83l-7.78,1.04l-7.68,1.35l-7.57,1.66l-7.47,1.76l-7.26,2.07&#10;&#9;&#9;&#9;l-7.16,2.39l-7.05,2.59l-6.85,2.8l-6.74,3.11l-6.64,3.42l0,0l0,0l0,0l0,0l-5.5,3.01l-5.39,3.22l-10.58,7.05l-10.16,7.78l-9.75,8.5&#10;&#9;&#9;&#9;l-9.44,9.23l-9.02,9.96l-8.61,10.68l-8.19,11.41l-2.59,4.46l-2.07,4.98l-1.76,5.6l-1.24,6.12l-0.73,6.74l-0.52,7.47l-0.1,8.4&#10;&#9;&#9;&#9;l0.31,11.51v1.35l0.73,35.26l0.62,37.13l0.31,39.1l0.21,40.97l-0.42,87.85l-1.24,95.63l-0.1,1.14l-0.41,1.14l-0.52,1.04&#10;&#9;&#9;&#9;l-0.83,0.93l-0.93,0.73l-1.04,0.62l-1.14,0.31l-1.14,0.1h-154.95l-1.76-0.21l-1.76-0.62l0,0l-1.97-1.24l-1.56-1.76l-0.93-2.18&#10;&#9;&#9;&#9;l-0.31-2.28v-624.26l0.1-1.35l0.41-1.35l0.62-1.14l0.93-1.04l1.04-0.93l1.14-0.62l1.35-0.42l1.35-0.1h137.84l1.66,0.21l1.56,0.41&#10;&#9;&#9;&#9;l1.45,0.83l1.24,1.04l1.04,1.24l0.83,1.45l0.42,1.56L3826.2,1790.6z" class="st4"/>
		<path d="M5653.45,2102.57l-0.42,16.39l-1.24,16.39l-1.97,16.39l-2.8,16.18l-3.63,16.08l-4.36,15.76l-5.19,15.66&#10;&#9;&#9;&#9;l-5.91,15.35l-6.64,15.04l-7.36,14.62l-8.09,14.31l-8.82,13.9l-9.44,13.48l-10.16,12.86l-10.68,12.45l-11.41,11.93l-11.93,11.41&#10;&#9;&#9;&#9;l-12.45,10.68l-12.86,10.16l-13.48,9.44l-13.9,8.82l-14.31,8.09l-14.62,7.36l-15.04,6.64l-15.35,5.91l-15.66,5.19l-15.76,4.36&#10;&#9;&#9;&#9;l-16.08,3.63l-16.18,2.8l-16.39,1.97l-16.39,1.24l-16.39,0.41l-16.39-0.41l-16.39-1.24l-16.39-1.97l-16.18-2.8l-16.08-3.63&#10;&#9;&#9;&#9;l-15.76-4.36l-15.66-5.19l-15.35-5.91l-15.04-6.64l-14.62-7.36l-14.31-8.09l-13.9-8.82l-13.48-9.44l-12.86-10.16l-12.45-10.68&#10;&#9;&#9;&#9;l-11.93-11.41l-11.41-11.93l-10.68-12.45l-10.16-12.86l-9.44-13.48l-8.82-13.9l-8.09-14.31l-7.36-14.62l-6.64-15.04l-5.91-15.35&#10;&#9;&#9;&#9;l-5.19-15.66l-4.36-15.76l-3.63-16.08l-2.8-16.18l-1.97-16.39l-1.24-16.39l-0.41-16.39l0.41-16.39l1.24-16.39l1.97-16.39&#10;&#9;&#9;&#9;l2.8-16.18l3.63-16.08l4.36-15.76l5.19-15.66l5.91-15.35l6.64-15.04l7.36-14.62l8.09-14.31l8.82-13.9l9.44-13.48l10.16-12.86&#10;&#9;&#9;&#9;l10.68-12.45l11.41-11.93l11.93-11.41l12.45-10.68l12.86-10.16l13.48-9.44l13.9-8.82l14.31-8.09l14.62-7.36l15.04-6.64l15.35-5.91&#10;&#9;&#9;&#9;l15.66-5.19l15.76-4.36l16.08-3.63l16.18-2.8l16.39-1.97l16.39-1.24l16.39-0.41l16.39,0.41l16.39,1.24l16.39,1.97l16.18,2.8&#10;&#9;&#9;&#9;l16.08,3.63l15.76,4.36l15.66,5.19l15.35,5.91l15.04,6.64l14.62,7.36l14.31,8.09l13.9,8.82l13.48,9.44l12.86,10.16l12.45,10.68&#10;&#9;&#9;&#9;l11.93,11.41l11.41,11.93l10.68,12.45l10.16,12.86l9.44,13.48l8.82,13.9l8.09,14.31l7.36,14.62l6.64,15.04l5.91,15.35l5.19,15.66&#10;&#9;&#9;&#9;l4.36,15.76l3.63,16.08l2.8,16.18l1.97,16.39l1.24,16.39L5653.45,2102.57z M5316.04,1911.85l-8,0.31l-7.98,0.77l-7.93,1.23&#10;&#9;&#9;&#9;l-7.87,1.68l-7.79,2.13l-7.69,2.57l-7.57,3.01l-7.44,3.44l-7.28,3.86l-7.11,4.28l-6.92,4.68l-6.71,5.07l-6.49,5.45l-6.25,5.81&#10;&#9;&#9;&#9;l-6,6.16l-5.73,6.5l-5.45,6.82l-5.16,7.13l-4.85,7.41l-4.53,7.69l-4.2,7.94l-3.86,8.17l-3.51,8.38l-3.16,8.57l-2.79,8.75&#10;&#9;&#9;&#9;l-2.42,8.9l-2.04,9.02l-1.66,9.13l-1.27,9.22l-0.88,9.28l-0.49,9.32l-0.1,9.34l0.29,9.34l0.69,9.31l1.08,9.26l1.47,9.19l1.85,9.09&#10;&#9;&#9;&#9;l2.23,8.98l2.6,8.84l2.97,8.68l3.33,8.51l3.69,8.31l4.03,8.09l4.37,7.85l4.69,7.59l5,7.31l5.3,7.02l5.59,6.71l5.87,6.38l6.13,6.04&#10;&#9;&#9;&#9;l6.37,5.68l6.6,5.31l6.82,4.93l7.02,4.53l7.2,4.12l7.36,3.71l7.51,3.28l7.63,2.85l7.74,2.41l7.83,1.97l7.91,1.51l7.96,1.06&#10;&#9;&#9;&#9;l7.99,0.6l8.01,0.15l0,0l8-0.31l7.98-0.77l7.93-1.23l7.87-1.68l7.79-2.13l7.69-2.57l7.57-3.01l7.44-3.44l7.28-3.86l7.11-4.28&#10;&#9;&#9;&#9;l6.92-4.68l6.71-5.07l6.49-5.45l6.25-5.81l6-6.16l5.73-6.5l5.45-6.82l5.16-7.13l4.85-7.41l4.53-7.69l4.2-7.94l3.86-8.17l3.51-8.38&#10;&#9;&#9;&#9;l3.16-8.57l2.79-8.75l2.42-8.9l2.04-9.02l1.66-9.13l1.27-9.22l0.88-9.28l0.49-9.32l0.1-9.34l-0.29-9.34l-0.69-9.31l-1.08-9.26&#10;&#9;&#9;&#9;l-1.47-9.19l-1.85-9.09l-2.23-8.98l-2.61-8.84l-2.97-8.68l-3.33-8.51l-3.69-8.31l-4.03-8.09l-4.37-7.85l-4.69-7.59l-5-7.31&#10;&#9;&#9;&#9;l-5.3-7.02l-5.59-6.71l-5.87-6.38l-6.13-6.04l-6.37-5.68l-6.6-5.31l-6.82-4.93l-7.02-4.53l-7.2-4.12l-7.36-3.71l-7.51-3.28&#10;&#9;&#9;&#9;l-7.63-2.85l-7.74-2.41l-7.83-1.97l-7.91-1.51l-7.96-1.06l-7.99-0.6L5316.04,1911.85z" class="st5"/>
		<path d="M6762.89,2335.73l-0.41-0.73l-1.04-0.83l-1.35-0.31l-1.35,0.31l-1.04,0.93l-4.98,6.53l-5.29,6.22l-5.6,6.22&#10;&#9;&#9;&#9;l-5.81,5.91l-6.12,5.81l-6.43,5.6l-6.64,5.39l-6.95,5.19l-7.16,4.98l-7.47,4.77l-7.67,4.56l-7.78,4.36l-8.19,4.15l-8.19,3.84&#10;&#9;&#9;&#9;l-8.5,3.63l-8.61,3.32l-8.92,3.22l-8.92,2.8l-9.23,2.59l-9.13,2.39l-9.33,1.97l-9.33,1.76l-9.33,1.35l-9.33,1.14l-9.44,0.93&#10;&#9;&#9;&#9;l-9.33,0.52l-9.33,0.21l-9.23-0.1l-9.13-0.31l-9.02-0.73l-8.92-1.04l-8.71-1.24l-10.27-1.87l-10.06-2.18l-9.75-2.49l-9.33-2.7&#10;&#9;&#9;&#9;l-9.13-2.9l-8.82-3.32l-8.61-3.53l-8.19-3.84l-7.88-4.04l-7.67-4.36l-7.36-4.67l-7.05-4.87l-6.74-5.19l-6.43-5.5l-6.12-5.81&#10;&#9;&#9;&#9;l-5.81-6.02l0,0l0,0l0,0l0,0l-5.08-5.6l-4.67-5.91l-4.56-6.02l-4.25-6.33l-4.04-6.53l-3.84-6.74l-3.53-7.05l-3.32-7.16l-3.11-7.47&#10;&#9;&#9;&#9;l-2.8-7.57l-2.59-7.88l-2.39-8.09l-2.18-8.4l-1.87-8.5l-1.66-8.71l-1.35-9.02l-1.04-10.37l-0.31-10.79l0.52-10.99l1.35-11.41&#10;&#9;&#9;&#9;l2.07-11.62l2.9-11.93l3.73-12.34l4.46-12.55l2.18-5.29l2.39-5.29l2.7-5.19l2.9-5.19l3.11-5.19l3.42-4.98l3.63-5.08l3.94-4.98&#10;&#9;&#9;&#9;l4.04-4.87l4.36-4.77l4.56-4.77l4.77-4.67l5.08-4.56l5.19-4.46l10.99-8.71l11.93-8.3l12.65-7.78l13.17-7.26l13.59-6.53l14-5.91&#10;&#9;&#9;&#9;l14.21-5.08l14.11-4.25l13.9-3.32l18.98-3.53l9.44-1.45l9.33-1.24l9.33-1.04l9.23-0.83l9.23-0.52l9.23-0.41l17.22-0.1l17.32,0.73&#10;&#9;&#9;&#9;l17.63,1.45l18.05,2.18l18.56,2.9l19.29,3.84l20.33,4.67l21.88,5.6l1.45,0.21h1.35l1.45-0.41l1.24-0.62l1.14-0.93l0.83-1.04&#10;&#9;&#9;&#9;l0.73-1.24l0.31-1.35l0,0l0.1-0.73l0.42-9.33l0.21-9.02l-0.21-8.71l-0.52-8.4l-0.83-8.09l-1.14-7.78l-1.45-7.47l-1.76-7.26&#10;&#9;&#9;&#9;l-2.07-6.85l-2.39-6.53l-2.7-6.33l-3.01-5.91l-3.42-5.6l-3.63-5.39l-3.94-4.98l-4.36-4.77l0,0l0,0l0,0l0,0l0,0l-3.94-3.84&#10;&#9;&#9;&#9;l-4.25-3.63l-4.56-3.42l-4.77-3.22l-4.98-2.9l-5.19-2.7l-5.5-2.49l-5.7-2.28l-5.91-1.97l-6.22-1.76l-6.43-1.56l-6.64-1.24&#10;&#9;&#9;&#9;l-6.95-1.04l-7.16-0.83l-7.36-0.62l-7.68-0.31l-10.47-0.21l-10.16,0.21l-10.06,0.52l-9.85,0.83l-9.75,1.14l-9.54,1.45l-9.44,1.76&#10;&#9;&#9;&#9;l-9.23,2.07l-7.57,1.97l-7.36,2.18l-7.47,2.49l-7.36,2.59l-7.47,2.9l-7.36,3.11l-7.36,3.32l-7.57,3.73l-15.25,8.09l-15.66,9.23&#10;&#9;&#9;&#9;l-16.49,10.58l-17.84,12.34l-1.56,0.83l-1.66,0.62l-1.87,0.1l-1.76-0.21l-1.66-0.52l-1.56-0.83l-1.35-1.24l-1.04-1.45l0,0&#10;&#9;&#9;&#9;l-0.31-0.62l-44.91-95.21l-0.62-2.28l0.21-2.39l1.04-2.18l1.66-1.76l13.9-9.85l14.1-9.23l14.31-8.5l14.52-7.99l14.73-7.26&#10;&#9;&#9;&#9;l14.94-6.74l15.14-6.02l15.35-5.39l0,0l0,0l0,0l12.34-3.84l12.45-3.42l12.55-3.01l12.65-2.7l12.86-2.28l12.96-1.87l13.07-1.45&#10;&#9;&#9;&#9;l13.17-1.04l22.92-1.14l21.99-0.31l21.37,0.52l10.48,0.52l10.16,0.73l10.06,0.93l9.75,1.14l9.65,1.35l9.33,1.56l9.33,1.76&#10;&#9;&#9;&#9;l8.92,1.97l8.82,2.07l8.61,2.39l8.4,2.49l8.19,2.8l7.99,2.9l7.88,3.22l7.47,3.32l7.47,3.53l7.16,3.63l6.95,4.04l6.74,4.04&#10;&#9;&#9;&#9;l6.64,4.36l6.33,4.46l6.22,4.77l5.91,4.87l5.7,5.19l5.5,5.29l5.29,5.5l7.78,8.92l7.26,9.23l6.85,9.85l6.22,10.27l5.81,10.68&#10;&#9;&#9;&#9;l5.29,11.2l4.77,11.72l4.25,12.03l1.66,5.6l1.66,6.22l1.45,6.64l1.24,7.26l2.28,15.87l1.87,18.05l1.24,20.02l0.73,22.09&#10;&#9;&#9;&#9;l0.31,24.17l-0.21,26.24l-0.41,38.27l-0.1,38.48l0.31,38.48l0.73,38.58l0.21,4.46l0.62,4.15l0.83,3.94l1.04,3.53l1.35,3.22&#10;&#9;&#9;&#9;l1.76,2.9l1.87,2.59l2.28,2.28l1.97,1.56l2.18,1.45l2.39,1.14l2.59,1.04l2.8,0.73l2.9,0.62l3.11,0.31l3.32,0.21l1.66,0.21&#10;&#9;&#9;&#9;l1.56,0.52l1.56,0.73l1.24,1.14l1.04,1.24l0.83,1.45l0.42,1.66l0.21,1.66v130.16l-0.31,1.76l-0.83,1.56l-1.35,1.14l-1.66,0.73&#10;&#9;&#9;&#9;l-12.76,3.01l-12.34,2.59l-12.13,1.87l-11.72,1.45l-11.2,0.93l-10.79,0.31l-10.27-0.31l-9.85-0.73l-9.33-1.35l-8.82-1.87&#10;&#9;&#9;&#9;l-8.3-2.49l-7.78-2.9l-7.36-3.53l-6.64-4.04l-6.33-4.67l-5.7-5.08l-4.15-4.46l-3.84-4.77l-3.42-5.08l-3.22-5.5l-2.28-5.08&#10;&#9;&#9;&#9;l-1.97-5.81l-1.56-6.64l-1.66-9.33l-1.35-7.47l-1.14-5.29l-1.24-4.56L6762.89,2335.73z M6737.27,2151.01l-0.31-2.18l-0.62-2.07&#10;&#9;&#9;&#9;l-1.04-1.97l-1.24-1.87l-1.56-1.56l-1.66-1.35l-1.97-1.14l-2.07-0.73l-17.32-4.46l-17.22-3.73l-17.22-3.11l-16.59-2.39&#10;&#9;&#9;&#9;l-16.08-1.56l-15.66-0.93l-15.04-0.1l-14.42,0.73l-13.48,1.35l-6.53,0.93l-6.43,1.24l-6.12,1.24l-6.02,1.56l-5.81,1.66l-5.7,1.97&#10;&#9;&#9;&#9;l-5.39,2.07l-5.29,2.18l-5.08,2.49l-4.98,2.59l-4.67,2.8l-4.56,3.01l-4.36,3.11l-4.15,3.32l-4.87,4.36l-4.46,4.67l-4.04,4.87&#10;&#9;&#9;&#9;l-3.73,4.98l-3.22,5.39l-2.9,5.5l-2.39,5.7l-1.97,5.81l-1.87,7.88l-1.14,7.88l-0.31,8.09l0.52,7.99l1.14,8.09l2.07,7.88l2.7,7.78&#10;&#9;&#9;&#9;l3.53,7.57l4.04,7.16l4.87,6.85l5.39,6.33l6.02,5.91l6.53,5.5l7.05,4.77l7.47,4.36l7.88,3.63l7.26,2.8l7.36,2.39l7.47,1.97&#10;&#9;&#9;&#9;l7.47,1.56l9.75,1.35l10.06,0.73h9.96l10.16-0.83l10.16-1.45l10.16-2.18l10.06-2.8l10.06-3.63l10.06-4.25l9.85-4.87l9.65-5.6&#10;&#9;&#9;&#9;l9.44-6.12l9.13-6.85l8.92-7.36l8.5-7.88l8.09-8.3l3.01-3.53l2.7-3.84l2.39-3.94l2.18-4.36l1.97-4.46l1.66-4.98l1.35-4.98&#10;&#9;&#9;&#9;l1.14-5.39l0.93-5.6l0.62-5.81l0.42-6.22l0.21-6.64l-0.21-14.31l-1.14-19.19L6737.27,2151.01z" class="st5"/>
		<path d="M6147.44,1783.75h156.92l0.93,0.1l1.35,0.73l0.83,1.14l0.42,1.35l-0.21,1.45l-233.57,630.48l-0.73,1.24&#10;&#9;&#9;&#9;l-1.14,0.73l-1.45,0.31h-174.45l-1.14-0.21l-0.93-0.41l-0.73-0.73l-0.52-0.93l-236.26-630.28l-0.21-1.45l0.31-1.35l0,0l0.62-0.83&#10;&#9;&#9;&#9;l0.73-0.62l0.93-0.41l0.93-0.1h165.32l1.04,0.21l0.93,0.41l0.83,0.83l0.52,0.93l155.78,464.85l0.73,1.24l1.14,0.83l0,0l1.45,0.31&#10;&#9;&#9;&#9;l1.45-0.31l1.24-0.83l0.73-1.24l152.77-465.06l0.52-0.93l0.83-0.83l0.93-0.41L6147.44,1783.75z" class="st5"/>
	</g>
</g>
</svg>