<?xml version="1.0" encoding="utf-8"?>
<!-- Generator: Adobe Illustrator 24.3.0, SVG Export Plug-In . SVG Version: 6.00 Build 0)  -->
<svg version="1.0" id="Layer_1" xmlns="http://www.w3.org/2000/svg" xmlns:xlink="http://www.w3.org/1999/xlink" x="0px" y="0px"
	 viewBox="0 0 8000 4000" style="enable-background:new 0 0 8000 4000;" xml:space="preserve">
<style type="text/css">
	.st0{fill:#3DAD38;}
	.st1{fill:#252525;}
</style>
<g>
	<path class="st0" d="M726.14,2642.4H490.02l-2.53-0.32l-2.37-0.63l-2.21-1.26l-1.89-1.58l-1.58-1.89l-1.26-2.21l-0.63-2.37
		l-0.32-2.53V1346.08l0.32-2.53l0.63-2.37l1.26-2.21l1.58-1.89l1.89-1.58l2.21-1.26l2.37-0.63l2.53-0.32h864.16l2.53,0.32l2.37,0.63
		l2.21,1.26l1.89,1.58l1.58,1.89l1.26,2.21l0.63,2.37l0.32,2.53v201.87l-0.32,2.53l-0.63,2.37l-1.26,2.21l-1.58,1.89l-1.89,1.58
		l-2.21,1.26l-2.37,0.63l-2.53,0.32H752.03l-2.53,0.32l-2.37,0.63l-2.21,1.26l-1.89,1.58l-1.58,1.89l-1.26,2.21l-0.63,2.37
		l-0.32,2.53v296.26l0.32,2.53l0.63,2.37l1.26,2.21l1.58,1.89l1.89,1.58l2.21,1.26l2.37,0.63l2.53,0.32h507.76l2.53,0.32l2.37,0.63
		l2.21,1.26l1.89,1.58l1.58,1.89l1.26,2.21l0.63,2.37l0.32,2.53v192.09l-0.32,2.53l-0.63,2.37l-1.26,2.21l-1.58,1.89l-1.89,1.58
		l-2.21,1.26l-2.37,0.63l-2.53,0.32H751.71l-2.53,0.32l-2.37,0.63l-2.21,1.26l-1.89,1.58l-1.58,1.89l-1.26,2.21l-0.63,2.37
		l-0.32,2.53v516.6l-0.32,2.53l-0.63,2.37l-1.26,2.21l-1.58,1.89l-1.89,1.58l-2.21,1.26l-2.37,0.63L726.14,2642.4z"/>
	<path class="st1" d="M4126.59,2174.09l1.1,0.95l1.58,0.32l1.58-0.63l0.95-1.1l0.47-1.58V1343.4l0.16-1.89l0.63-1.74l0.79-1.74
		l1.26-1.42l1.42-1.26l1.58-0.79l1.74-0.63l1.89-0.16h242.28l3,0.63l2.52,1.74l1.74,2.53l0.63,3v1293.32l-0.63,2.84l-1.58,2.37
		l-2.37,1.58l-2.84,0.63h-91.39l-95.65,0.95l-5.84-0.32l0,0l-5.68-1.11l-5.68-1.74l-5.52-2.53l-5.52-3.16l-5.37-3.95l-5.37-4.74
		l-5.21-5.52l-5.05-6.16l-234.7-300.84l-389.86-497.66l-1.1-0.95l-1.42-0.16l-1.58,0.47l-1.1,1.11l-0.32,1.58v811.91l-0.16,2.37
		l-0.79,2.21l-0.95,2.05l-1.58,1.74l-1.74,1.42l-2.05,1.11l-2.21,0.79l-2.21,0.16l0,0H3268.9l-1.74-0.16l-1.74-0.47l-1.58-0.95
		l-1.42-1.1l-1.1-1.42l-0.95-1.58l-0.47-1.74l-0.16-1.74V1341.5l0.63-3l1.74-2.53l2.53-1.74l3.16-0.63h196.03l5.37,0.63l5.21,1.89
		l4.58,2.84l3.79,3.95L4126.59,2174.09z"/>
	<path class="st0" d="M2410.26,2156.42l-0.63,25.1l-1.89,24.94l-3,24.78l-4.26,24.78l-5.52,24.46l-6.63,23.99l-7.89,23.83l-9,23.36
		l-10.1,22.89l-11.36,22.41l-12.31,21.78l-13.42,21.15l-14.36,20.52l-15.47,19.73l-16.42,18.94l-17.2,18.15l-18.15,17.2
		l-18.94,16.42l-19.73,15.47l-20.52,14.36l-21.15,13.42l-21.78,12.31l-22.41,11.36l-22.89,10.1l-23.36,9l-23.83,7.89l-23.99,6.63
		l-24.46,5.52l-24.78,4.26l-24.78,3l-24.94,1.89l-25.1,0.63l-25.1-0.63l-24.94-1.89l-24.78-3l-24.78-4.26l-24.46-5.52l-23.99-6.63
		l-23.83-7.89l-23.36-9l-22.89-10.1l-22.41-11.36l-21.78-12.31l-21.15-13.42l-20.52-14.36l-19.73-15.47l-18.94-16.42l-18.15-17.2
		l-17.2-18.15l-16.42-18.94l-15.47-19.73l-14.36-20.52l-13.42-21.15l-12.31-21.78l-11.36-22.41l-10.1-22.89l-9-23.36l-7.89-23.83
		l-6.63-23.99l-5.52-24.46l-4.26-24.78l-3-24.78l-1.89-24.94l-0.63-25.1l0.63-25.1l1.89-24.94l3-24.78l4.26-24.78l5.52-24.46
		l6.63-23.99l7.89-23.83l9-23.36l10.1-22.89l11.36-22.41l12.31-21.78l13.42-21.15l14.36-20.52l15.47-19.73l16.42-18.94l17.2-18.15
		l18.15-17.2l18.94-16.42l19.73-15.47l20.52-14.36l21.15-13.42l21.78-12.31l22.41-11.36l22.89-10.1l23.36-9l23.83-7.89l23.99-6.63
		l24.46-5.52l24.78-4.26l24.78-3l24.94-1.89l25.1-0.63l25.1,0.63l24.94,1.89l24.78,3l24.78,4.26l24.46,5.52l23.99,6.63l23.83,7.89
		l23.36,9l22.89,10.1l22.41,11.36l21.78,12.31l21.15,13.42l20.52,14.36l19.73,15.47l18.94,16.42l18.15,17.2l17.2,18.15l16.42,18.94
		l15.47,19.73l14.36,20.52l13.42,21.15l12.31,21.78l11.36,22.41l10.1,22.89l9,23.36l7.89,23.83l6.63,23.99l5.52,24.46l4.26,24.78
		l3,24.78l1.89,24.94L2410.26,2156.42z M1899.5,1866.31l-12.12,0.35l-12.09,1.04l-12.03,1.74l-11.95,2.42l-11.83,3.11l-11.69,3.78
		l-11.51,4.45l-11.31,5.1l-11.08,5.75l-10.83,6.37l-10.55,6.99l-10.24,7.58l-9.91,8.16l-9.56,8.72l-9.18,9.26l-8.78,9.77
		l-8.36,10.27l-7.92,10.73l-7.46,11.18l-6.98,11.59l-6.49,11.98l-5.98,12.33l-5.45,12.66l-4.91,12.96l-4.36,13.23l-3.8,13.46
		l-3.23,13.66l-2.66,13.83l-2.07,13.97l-1.48,14.07l-0.89,14.14l-0.3,14.17l0.3,14.17l0.89,14.14l1.48,14.07l2.07,13.97l2.66,13.83
		l3.23,13.66l3.8,13.46l4.36,13.23l4.91,12.96l5.45,12.66l5.98,12.33l6.49,11.98l6.98,11.59l7.46,11.18l7.92,10.73l8.36,10.27
		l8.78,9.77l9.18,9.26l9.56,8.72l9.91,8.16l10.24,7.58l10.55,6.99l10.83,6.37l11.08,5.75l11.31,5.1l11.51,4.45l11.69,3.78
		l11.83,3.11l11.95,2.42l12.03,1.74l12.09,1.04l12.12,0.35l0,0l12.12-0.35l12.09-1.04l12.03-1.74l11.95-2.42l11.83-3.11l11.69-3.78
		l11.51-4.45l11.31-5.1l11.08-5.75l10.83-6.37l10.55-6.99l10.24-7.58l9.91-8.16l9.56-8.72l9.18-9.26l8.78-9.77l8.36-10.27
		l7.92-10.73l7.46-11.18l6.98-11.59l6.49-11.98l5.98-12.33l5.45-12.66l4.91-12.96l4.36-13.23l3.8-13.46l3.23-13.66l2.66-13.83
		l2.07-13.97l1.48-14.07l0.89-14.14l0.3-14.17l-0.3-14.17l-0.89-14.14l-1.48-14.07l-2.07-13.97l-2.66-13.83l-3.23-13.66l-3.8-13.46
		l-4.36-13.23l-4.91-12.96l-5.45-12.66l-5.98-12.33l-6.49-11.98l-6.98-11.59l-7.46-11.18l-7.92-10.73l-8.36-10.27l-8.78-9.77
		l-9.18-9.26l-9.56-8.72l-9.91-8.16l-10.24-7.58l-10.55-6.99l-10.83-6.37l-11.08-5.75l-11.31-5.1l-11.51-4.45l-11.69-3.78
		l-11.83-3.11l-11.95-2.42l-12.03-1.74l-12.09-1.04L1899.5,1866.31z"/>
	<path class="st0" d="M2775.5,1681.33v174.73l0.16,1.58l0.79,1.42l0.95,1.26l1.26,0.79l1.42,0.47l1.58,0.16l1.42-0.32l1.42-0.63
		l1.1-1.1l0.79-1.26l7.42-14.99l7.89-14.52l8.21-14.05l8.84-13.42l9.47-12.94l9.79-12.63l10.1-11.84l10.73-11.36l11.05-10.89
		l11.52-10.1l12-9.63l12.31-9l12.63-8.37l12.94-7.73l13.26-7.1l13.73-6.47l9.15-3.79l9.31-3.63l9.47-3.31l9.63-3l9.63-2.68
		l9.63-2.37l9.94-2.05l9.94-1.89l20.2-2.68l20.52-1.42l20.68-0.16l21.15,0.95l2.37,0.47l2.21,0.79l2.05,1.26l1.74,1.58l1.58,1.89
		l0.95,2.05l0.79,2.37l0.16,2.37v208.66v0.47l-0.32,2.53l-0.95,2.53l-1.26,2.21l-1.74,2.05l-2.21,1.58l-2.37,1.1l-2.53,0.47
		l-2.68,0.16l-13.1-0.63l-12.94-0.32l-12.78,0.16l-12.47,0.47l-12.31,0.79l-12.15,1.26l-11.84,1.58l-11.68,2.05l-11.52,2.53
		l-11.36,2.68l-11.05,3.16l-10.89,3.63l-10.73,3.95l-10.42,4.26l-10.26,4.73l-10.1,5.21l0,0l0,0l0,0l0,0l-8.37,4.58l-8.21,4.89
		l-16.1,10.73l-15.47,11.84l-14.84,12.94l-14.36,14.05l-13.73,15.15l-13.1,16.26l-12.47,17.36l-3.95,6.79l-3.16,7.58l-2.68,8.52
		l-1.89,9.31l-1.1,10.26l-0.79,11.36l-0.16,12.78l0.47,17.52v2.05l1.1,53.66l0.95,56.51l0.47,59.5l0.32,62.35l-0.63,133.69
		l-1.89,145.53l-0.16,1.74l-0.63,1.74l-0.79,1.58l-1.26,1.42l-1.42,1.1l-1.58,0.95l-1.74,0.47l-1.74,0.16H2555l-2.68-0.32
		l-2.68-0.95l0,0l-3-1.89l-2.37-2.68l-1.42-3.31l-0.47-3.47v-950.02l0.16-2.05l0.63-2.05l0.95-1.74l1.42-1.58l1.58-1.42l1.74-0.95
		l2.05-0.63l2.05-0.16h209.77l2.53,0.32l2.37,0.63l2.21,1.26l1.89,1.58l1.58,1.89l1.26,2.21l0.63,2.37L2775.5,1681.33z"/>
	<path class="st1" d="M5556.27,2156.1l-0.63,24.94l-1.89,24.94l-3,24.94l-4.26,24.62l-5.52,24.46l-6.63,23.99l-7.89,23.83l-9,23.36
		l-10.1,22.89l-11.21,22.26l-12.31,21.78l-13.42,21.15l-14.36,20.52l-15.47,19.57l-16.26,18.94l-17.36,18.15l-18.15,17.36
		l-18.94,16.26l-19.57,15.47l-20.52,14.36l-21.15,13.42l-21.78,12.31l-22.26,11.21l-22.89,10.1l-23.36,9l-23.83,7.89l-23.99,6.63
		l-24.46,5.52l-24.62,4.26l-24.94,3l-24.94,1.89l-24.94,0.63l-24.94-0.63l-24.94-1.89l-24.94-3l-24.62-4.26l-24.47-5.52l-23.99-6.63
		l-23.83-7.89l-23.36-9l-22.89-10.1l-22.25-11.21l-21.78-12.31l-21.15-13.42l-20.52-14.36l-19.57-15.47l-18.94-16.26l-18.15-17.36
		l-17.36-18.15l-16.26-18.94l-15.47-19.57l-14.36-20.52l-13.42-21.15l-12.31-21.78l-11.21-22.26l-10.1-22.89l-9-23.36l-7.89-23.83
		l-6.63-23.99l-5.52-24.46l-4.26-24.62l-3-24.94l-1.89-24.94l-0.63-24.94l0.63-24.94l1.89-24.94l3-24.94l4.26-24.62l5.52-24.46
		l6.63-23.99l7.89-23.83l9-23.36l10.1-22.89l11.21-22.26l12.31-21.78l13.42-21.15l14.36-20.52l15.47-19.57l16.26-18.94l17.36-18.15
		l18.15-17.36l18.94-16.26l19.57-15.47l20.52-14.36l21.15-13.42l21.78-12.31l22.25-11.21l22.89-10.1l23.36-9l23.83-7.89l23.99-6.63
		l24.47-5.52l24.62-4.26l24.94-3l24.94-1.89l24.94-0.63l24.94,0.63l24.94,1.89l24.94,3l24.62,4.26l24.46,5.52l23.99,6.63l23.83,7.89
		l23.36,9l22.89,10.1l22.26,11.21l21.78,12.31l21.15,13.42l20.52,14.36l19.57,15.47l18.94,16.26l18.15,17.36l17.36,18.15
		l16.26,18.94l15.47,19.57l14.36,20.52l13.42,21.15l12.31,21.78l11.21,22.26l10.1,22.89l9,23.36l7.89,23.83l6.63,23.99l5.52,24.46
		l4.26,24.62l3,24.94l1.89,24.94L5556.27,2156.1z M5042.8,1865.85l-12.18,0.48l-12.14,1.17l-12.07,1.87l-11.98,2.56l-11.86,3.24
		l-11.7,3.91l-11.52,4.58l-11.32,5.24l-11.08,5.88l-10.82,6.51l-10.53,7.12l-10.22,7.71l-9.88,8.29l-9.51,8.85l-9.13,9.38l-8.72,9.9
		l-8.29,10.38l-7.85,10.85l-7.38,11.28l-6.9,11.7l-6.39,12.08l-5.88,12.43l-5.35,12.75l-4.8,13.05l-4.25,13.31l-3.68,13.54
		l-3.11,13.73l-2.53,13.9l-1.94,14.03l-1.34,14.12l-0.75,14.19l-0.15,14.21l0.45,14.21l1.04,14.17l1.64,14.09l2.23,13.98l2.81,13.84
		l3.39,13.67l3.96,13.46l4.52,13.22l5.07,12.94l5.61,12.64l6.14,12.31l6.65,11.94l7.14,11.55l7.61,11.13l8.07,10.68l8.51,10.21
		l8.93,9.71l9.33,9.19l9.7,8.64l10.05,8.08l10.38,7.5l10.68,6.9l10.95,6.28l11.2,5.64l11.42,5l11.62,4.34l11.78,3.67l11.92,2.99
		l12.03,2.3l12.11,1.61l12.16,0.92l12.19,0.22l0,0l12.18-0.48l12.14-1.17l12.07-1.87l11.98-2.56l11.86-3.24l11.7-3.91l11.52-4.58
		l11.32-5.24l11.08-5.88l10.82-6.51l10.53-7.12l10.22-7.71l9.88-8.29l9.51-8.84l9.13-9.38l8.72-9.89l8.29-10.38l7.85-10.85
		l7.38-11.28l6.9-11.7l6.39-12.08l5.88-12.43l5.35-12.75l4.8-13.05l4.25-13.31l3.68-13.54l3.11-13.73l2.53-13.9l1.94-14.03
		l1.34-14.12l0.75-14.19l0.15-14.21l-0.45-14.21l-1.05-14.17l-1.64-14.09l-2.23-13.98l-2.81-13.84l-3.39-13.67l-3.96-13.46
		l-4.52-13.22l-5.07-12.94l-5.61-12.64l-6.14-12.31l-6.64-11.94l-7.14-11.55l-7.61-11.13l-8.07-10.68l-8.51-10.21l-8.93-9.71
		l-9.33-9.19l-9.7-8.64l-10.05-8.08l-10.37-7.5l-10.68-6.9l-10.95-6.28l-11.2-5.64l-11.42-5l-11.62-4.34l-11.78-3.67l-11.92-2.99
		l-12.03-2.3l-12.11-1.61l-12.16-0.92L5042.8,1865.85z"/>
	<path class="st1" d="M7244.66,2510.92l-0.63-1.1l-1.58-1.26l-2.05-0.47l-2.05,0.47l-1.58,1.42l-7.58,9.94l-8.05,9.47l-8.52,9.47
		l-8.84,9l-9.31,8.84l-9.79,8.52l-10.1,8.21l-10.58,7.89l-10.89,7.58l-11.36,7.26l-11.68,6.95l-11.84,6.63l-12.47,6.31l-12.47,5.84
		l-12.94,5.52l-13.1,5.05l-13.57,4.89l-13.57,4.26l-14.05,3.95l-13.89,3.63l-14.21,3l-14.21,2.68l-14.21,2.05l-14.21,1.74
		l-14.36,1.42l-14.21,0.79l-14.21,0.32l-14.05-0.16l-13.89-0.47l-13.73-1.1l-13.57-1.58l-13.26-1.89l-15.63-2.84l-15.31-3.31
		l-14.84-3.79l-14.21-4.1l-13.89-4.42l-13.42-5.05l-13.1-5.37l-12.47-5.84l-12-6.16l-11.68-6.63l-11.21-7.1l-10.73-7.42l-10.26-7.89
		l-9.79-8.37l-9.31-8.84l-8.84-9.15l0,0l0,0l0,0l0,0l-7.73-8.52l-7.1-9l-6.94-9.15l-6.47-9.63l-6.16-9.94l-5.84-10.26l-5.37-10.73
		l-5.05-10.89l-4.74-11.36l-4.26-11.52l-3.95-12l-3.63-12.31l-3.31-12.78l-2.84-12.94l-2.53-13.26l-2.05-13.73l-1.58-15.78
		l-0.47-16.42l0.79-16.73l2.05-17.36l3.16-17.68l4.42-18.15l5.68-18.78l6.79-19.1l3.31-8.05l3.63-8.05l4.1-7.89l4.42-7.89l4.74-7.89
		l5.21-7.58l5.52-7.73l6-7.58l6.16-7.42l6.63-7.26l6.94-7.26l7.26-7.1l7.73-6.94l7.89-6.79l16.73-13.26l18.15-12.63l19.26-11.84
		l20.05-11.05l20.68-9.94l21.31-9l21.62-7.73l21.47-6.47l21.15-5.05l28.88-5.37l14.36-2.21l14.21-1.89l14.21-1.58l14.05-1.26
		l14.05-0.79l14.05-0.63l26.2-0.16l26.36,1.1l26.83,2.21l27.46,3.31l28.25,4.42l29.36,5.84l30.94,7.1l33.3,8.52l2.21,0.32h2.05
		l2.21-0.63l1.89-0.95l1.74-1.42l1.26-1.58l1.1-1.89l0.47-2.05l0,0l0.16-1.1l0.63-14.21l0.32-13.73l-0.32-13.26l-0.79-12.78
		l-1.26-12.31l-1.74-11.84l-2.21-11.36l-2.68-11.05l-3.16-10.42l-3.63-9.94l-4.1-9.63l-4.58-9l-5.21-8.52l-5.52-8.21l-6-7.58
		l-6.63-7.26l0,0l0,0l0,0l0,0l0,0l-6-5.84l-6.47-5.52l-6.94-5.21l-7.26-4.89l-7.58-4.42l-7.89-4.1l-8.37-3.79l-8.68-3.47l-9-3
		l-9.47-2.68l-9.79-2.37l-10.1-1.89l-10.57-1.58l-10.89-1.26l-11.21-0.95l-11.68-0.47l-15.94-0.32l-15.47,0.32l-15.31,0.79
		l-14.99,1.26l-14.84,1.74l-14.52,2.21l-14.36,2.68l-14.05,3.16l-11.52,3l-11.21,3.31l-11.36,3.79l-11.21,3.95l-11.36,4.42
		l-11.21,4.74l-11.21,5.05l-11.52,5.68l-23.2,12.31l-23.83,14.05l-25.1,16.1l-27.15,18.78l-2.37,1.26l-2.52,0.95l-2.84,0.16
		l-2.68-0.32l-2.53-0.79l-2.37-1.26l-2.05-1.89l-1.58-2.21l0,0l-0.47-0.95l-68.34-144.89l-0.95-3.47l0.32-3.63l1.58-3.31l2.52-2.68
		l21.15-14.99l21.47-14.05l21.78-12.94l22.1-12.15l22.41-11.05l22.73-10.26l23.04-9.15l23.36-8.21l0,0l0,0l0,0l18.78-5.84
		l18.94-5.21l19.1-4.58l19.26-4.1l19.57-3.47l19.73-2.84l19.89-2.21l20.05-1.58l34.88-1.74l33.46-0.47l32.51,0.79l15.94,0.79
		l15.47,1.1l15.31,1.42l14.84,1.74l14.68,2.05l14.21,2.37l14.21,2.68l13.57,3l13.42,3.16l13.1,3.63l12.78,3.79l12.47,4.26
		l12.15,4.42l12,4.89l11.36,5.05l11.36,5.37l10.89,5.52l10.58,6.16l10.26,6.16l10.1,6.63l9.63,6.79l9.47,7.26l9,7.42l8.68,7.89
		l8.37,8.05l8.05,8.37l11.84,13.57l11.05,14.05l10.42,14.99l9.47,15.63l8.84,16.26l8.05,17.05l7.26,17.84l6.47,18.31l2.53,8.52
		l2.53,9.47l2.21,10.1l1.89,11.05l3.47,24.15l2.84,27.46l1.89,30.46l1.1,33.62l0.47,36.78l-0.32,39.93l-0.63,58.24l-0.16,58.56
		l0.47,58.56l1.1,58.72l0.32,6.79l0.95,6.31l1.26,6l1.58,5.37l2.05,4.89l2.68,4.42l2.84,3.95l3.47,3.47l3,2.37l3.31,2.21l3.63,1.74
		l3.95,1.58l4.26,1.1l4.42,0.95l4.74,0.47l5.05,0.32l2.53,0.32l2.37,0.79l2.37,1.1l1.89,1.74l1.58,1.89l1.26,2.21l0.63,2.53
		l0.32,2.53v198.09l-0.47,2.68l-1.26,2.37l-2.05,1.74l-2.53,1.1l-19.41,4.58l-18.78,3.95l-18.47,2.84l-17.84,2.21l-17.05,1.42
		l-16.42,0.47l-15.63-0.47l-14.99-1.1l-14.21-2.05l-13.42-2.84l-12.63-3.79l-11.84-4.42l-11.21-5.37l-10.1-6.16l-9.63-7.1
		l-8.68-7.73l-6.31-6.79l-5.84-7.26l-5.21-7.73l-4.89-8.37l-3.47-7.73l-3-8.84l-2.37-10.1l-2.53-14.21l-2.05-11.36l-1.74-8.05
		l-1.89-6.94L7244.66,2510.92z M7205.67,2229.81l-0.47-3.31l-0.95-3.16l-1.58-3l-1.89-2.84l-2.37-2.37l-2.53-2.05l-3-1.74l-3.16-1.1
		l-26.36-6.79l-26.2-5.68l-26.2-4.74l-25.25-3.63l-24.46-2.37l-23.83-1.42l-22.89-0.16l-21.94,1.1l-20.52,2.05l-9.94,1.42
		l-9.79,1.89l-9.31,1.89l-9.15,2.37l-8.84,2.53l-8.68,3l-8.21,3.16l-8.05,3.31l-7.73,3.79l-7.58,3.95l-7.1,4.26l-6.94,4.58
		l-6.63,4.73l-6.31,5.05l-7.42,6.63l-6.79,7.1l-6.16,7.42l-5.68,7.58l-4.89,8.21l-4.42,8.37l-3.63,8.68l-3,8.84l-2.84,12l-1.74,12
		l-0.47,12.31l0.79,12.15l1.74,12.31l3.16,12l4.1,11.84l5.37,11.52l6.16,10.89l7.42,10.42l8.21,9.63l9.15,9l9.94,8.37l10.73,7.26
		l11.36,6.63l12,5.52l11.05,4.26l11.21,3.63l11.36,3l11.36,2.37l14.84,2.05l15.31,1.1h15.15l15.47-1.26l15.47-2.21l15.47-3.31
		l15.31-4.26l15.31-5.52l15.31-6.47l14.99-7.42l14.68-8.52l14.36-9.31l13.89-10.42l13.57-11.21l12.94-12l12.31-12.63l4.58-5.37
		l4.1-5.84l3.63-6l3.31-6.63l3-6.79l2.53-7.58l2.05-7.58l1.74-8.21l1.42-8.52l0.95-8.84l0.63-9.47l0.32-10.1l-0.32-21.78l-1.74-29.2
		L7205.67,2229.81z"/>
	<path class="st1" d="M6308.05,1670.91h238.81l1.42,0.16l2.05,1.1l1.26,1.74l0.63,2.05l-0.32,2.21l-355.45,959.49l-1.1,1.89
		l-1.74,1.1l-2.21,0.47h-265.48l-1.74-0.32l-1.42-0.63l-1.1-1.1l-0.79-1.42l-359.55-959.18l-0.32-2.21l0.47-2.05l0,0l0.95-1.26
		l1.1-0.95l1.42-0.63l1.42-0.16h251.59l1.58,0.32l1.42,0.63l1.26,1.26l0.79,1.42l237.07,707.43l1.1,1.89l1.74,1.26l0,0l2.21,0.47
		l2.21-0.47l1.89-1.26l1.1-1.89l232.49-707.74l0.79-1.42l1.26-1.26l1.42-0.63L6308.05,1670.91z"/>
</g>
</svg>
