<svg xml:space="preserve" style="max-height: 500px" viewBox="1665.7824933687002 0 4700.26525198939 4010.6100795755965" y="0px" x="0px" xmlns:xlink="http://www.w3.org/1999/xlink" xmlns="http://www.w3.org/2000/svg" id="Layer_1" version="1.0" width="4700.26525198939" height="4010.6100795755965">
<style type="text/css">
	.st0{fill:none;}
	.st1{fill:#FFFFFF;}
	.st2{fill:#242424;}
	.st3{fill:#39B135;}
</style>
<g>
	<polygon points="4837.46,3797.77 4837.49,3797.66 4837.37,3797.88" class="st0"/>
	<polygon points="4837.9,3792.63 4837.8,3792.48 4837.93,3792.85" class="st0"/>
	<polygon points="4200.83,210.75 4200.91,210.55 4199.8,212.07" class="st0"/>
	<polygon points="2205.9,3801 2206.78,3801 2205.13,3800.72" class="st0"/>
	<polygon points="4199.95,203.41 4199.85,203.32 4200.14,203.7" class="st0"/>
	<polygon points="2203.85,3800.26 2204.81,3800.61 2203.53,3800.03" class="st0"/>
	<polygon points="5785.14,1829.72 5783.82,1830.75 5785.18,1829.7" class="st0"/>
	<polygon points="5785.58,3795.86 5785.69,3795.91 5783.82,3794.54" class="st0"/>
	<polygon points="5796.21,1831.62 5795.86,1831.04 5794.68,1829.86 5793.21,1829.13 5793.11,1829.09 5794.98,1830.16" class="st0"/>
	<polygon points="5791.45,3796.74 5788.66,3796.89 5788.14,3796.74 5787.52,3796.74 5789.69,3797.03 5791.89,3796.74 &#10;&#9;&#9;5793.95,3795.86 5795.71,3794.39 5794.1,3795.71" class="st0"/>
	<polygon points="5786.51,3796.29 5787.49,3796.74 5787.52,3796.74 5788.14,3796.74" class="st0"/>
	<polygon points="5790.57,1828.4 5792.57,1828.9 5791.6,1828.54 5789.84,1828.25 5788.22,1828.4 5786.61,1828.98 &#10;&#9;&#9;5786.51,1829.03 5788.07,1828.54" class="st0"/>
	<polygon points="5797.47,1833.68 5797.32,1833.43 5797.49,1833.74" class="st0"/>
	<polygon points="2201.71,3798.25 2202.09,3798.94 2203.12,3799.71 2202.23,3798.94" class="st0"/>
	<polygon points="4201.07,210.14 4201.42,209.28 4201.71,207.81 4201.56,207.01 4201.56,208.55" class="st0"/>
	<polygon points="2731.95,1685.36 2733.27,1687.26 2731.95,1685.21 2731.38,1683.06 2731.36,1683.15" class="st0"/>
	<polygon points="4835.84,3799.82 4836.14,3799.44 4835.55,3799.97" class="st0"/>
	<polygon points="4832.17,3801 4834.08,3800.7 4835.55,3799.97 4833.94,3800.7" class="st0"/>
	<polygon points="4199.65,203.15 4198.77,202.38 4198.77,202.38 4198.63,202.38" class="st0"/>
	<polygon points="4198.77,202.38 4197.55,201.89 4198.63,202.38" class="st0"/>
	<polygon points="5797.33,1637.33 5796,1638.65 5794.24,1639.54 5792.33,1639.83 5790.57,1639.83 5788.66,1639.39 &#10;&#9;&#9;5787.34,1638.65 5786.17,1637.63 5459.11,1310.72 5457.79,1309.69 5456.32,1308.81 5454.85,1308.37 5453.24,1308.22 &#10;&#9;&#9;5451.48,1308.37 5450.01,1308.96 5448.54,1309.69 5447.22,1310.72 4380,2378.09 4377.94,2379.7 4375.74,2381.02 4373.09,2381.76 &#10;&#9;&#9;4370.6,2382.05 4367.95,2381.76 4365.46,2381.02 4363.11,2379.7 4361.05,2378.09 3672.14,1689.03 3668.91,1685.06 3666.41,1680.51 &#10;&#9;&#9;3664.94,1675.52 3664.35,1670.38 3664.94,1665.24 3666.41,1660.24 3668.91,1655.54 3672.14,1651.58 4727.46,596.4 4729.81,593.46 &#10;&#9;&#9;4731.72,590.09 4732.75,586.41 4733.19,582.74 4732.75,578.92 4731.72,575.25 4729.81,571.87 4727.46,568.94 4376.18,218.24 &#10;&#9;&#9;4373.39,215.3 4371.33,212.66 4370.01,210.31 4369.42,208.25 4369.42,206.2 4369.57,204.58 4370.16,203.11 4370.89,202.09 &#10;&#9;&#9;4372.8,200.91 4375.3,200.62 4198.77,202.38 4198.77,202.38 4199.65,203.15 4199.8,203.26 4199.85,203.32 4199.95,203.41 &#10;&#9;&#9;4200.14,203.7 4200.83,204.58 4201.56,206.49 4201.56,207.01 4201.71,207.81 4201.42,209.28 4201.07,210.14 4200.98,210.46 &#10;&#9;&#9;4200.91,210.55 4200.83,210.75 4199.8,212.07 2733.27,1678.45 2731.8,1680.66 2731.38,1683.06 2731.95,1685.21 2733.27,1687.26 &#10;&#9;&#9;4836.43,3790.42 4837.61,3791.89 4837.8,3792.48 4837.9,3792.63 4837.93,3792.85 4838.19,3793.65 4838.19,3795.27 4838.19,3795.42 &#10;&#9;&#9;4837.75,3797.18 4837.49,3797.66 5787.52,3796.74 5787.49,3796.74 5786.51,3796.29 5786.02,3796.15 5785.69,3795.91 &#10;&#9;&#9;5785.58,3795.86 5783.82,3794.54 4810.88,2818.52 4809.85,2817.34 4809.12,2815.87 4808.68,2814.26 4808.38,2812.64 &#10;&#9;&#9;4808.68,2811.03 4809.12,2809.41 4809.85,2807.94 4810.88,2806.77 5783.82,1830.75 5785.14,1829.72 5785.18,1829.7 &#10;&#9;&#9;5785.73,1829.28 5786.51,1829.03 5786.61,1828.98 5788.22,1828.4 5789.84,1828.25 5791.6,1828.54 5792.57,1828.9 5792.92,1828.98 &#10;&#9;&#9;5793.11,1829.09 5793.21,1829.13 5794.68,1829.86 5795.86,1831.04 5796.21,1831.62 5796.59,1832.07 5797.32,1833.43 &#10;&#9;&#9;5797.47,1833.68 5797.49,1833.74 5797.77,1834.27 5798.06,1836.62 5799.09,1634.1 5798.5,1635.86" class="st1"/>
	<polygon points="4837.93,3792.85 4837.8,3792.48 4836.43,3790.42 2733.27,1687.26 2731.95,1685.36 2731.36,1683.15 &#10;&#9;&#9;2731.38,1683.06 2731.36,1683.01 2731.8,1680.51 2733.27,1678.45 4199.8,212.07 4200.91,210.55 4201.07,210.14 4201.56,208.55 &#10;&#9;&#9;4201.56,207.01 4201.42,206.2 4200.83,204.73 4200.14,203.7 4199.85,203.32 4199.65,203.15 4198.63,202.38 4197.55,201.89 &#10;&#9;&#9;4197.3,201.79 4195.54,201.5 2206.78,201.5 2204.44,201.94 2202.38,203.26 2201.06,205.32 2200.62,207.67 2200.62,3794.83 &#10;&#9;&#9;2201.06,3797.03 2201.06,3797.03 2201.06,3797.03 2201.71,3798.25 2202.23,3798.94 2203.12,3799.71 2203.53,3800.03 &#10;&#9;&#9;2204.81,3800.61 2205.13,3800.72 2206.78,3801 4832.17,3801 4833.94,3800.7 4835.55,3799.97 4835.55,3799.97 4836.14,3799.44 &#10;&#9;&#9;4837.37,3797.88 4837.49,3797.66 4838.19,3795.27" class="st2"/>
	<polygon points="2201.06,3797.03 2201.06,3797.03 2201.06,3797.03" class="st2"/>
	<polygon points="4835.55,3799.97 4835.55,3799.97 4835.55,3799.97" class="st2"/>
	<polygon points="4200.98,210.46 4201.07,210.14 4200.91,210.55" class="st2"/>
	<polygon points="4201.42,206.2 4201.56,207.01 4201.56,206.49 4200.83,204.58 4200.14,203.7 4200.83,204.73" class="st2"/>
	<polygon points="4199.8,203.26 4199.65,203.15 4199.85,203.32" class="st2"/>
	<polygon points="2200.76,3796.3 2201.06,3797.03 2200.62,3794.83" class="st2"/>
	<polygon points="4837.61,3791.89 4836.43,3790.42 4837.8,3792.48" class="st2"/>
	<polygon points="2203.41,3799.97 2203.53,3800.03 2203.12,3799.71" class="st2"/>
	<polygon points="2205.02,3800.7 2205.13,3800.72 2204.81,3800.61" class="st2"/>
	<polygon points="2201.35,3797.77 2201.71,3798.25 2201.06,3797.03" class="st2"/>
	<polygon points="4197.55,201.89 4197.01,201.65 4195.54,201.5 4197.3,201.79" class="st2"/>
	<polygon points="4836.87,3798.8 4837.37,3797.88 4836.14,3799.44" class="st2"/>
	<polygon points="4838.19,3793.65 4837.93,3792.85 4838.19,3795.27" class="st2"/>
	<polygon points="2731.36,1683.01 2731.38,1683.06 2731.8,1680.66 2733.27,1678.45 2731.8,1680.51" class="st2"/>
	<polygon points="4838.19,3795.42 4838.19,3795.27 4837.49,3797.66 4837.75,3797.18" class="st2"/>
	<polygon points="5798.06,210.31 5796.45,207.23 5794.24,204.44 5791.6,202.23 5788.52,200.62 5785.14,199.59 &#10;&#9;&#9;5781.76,199.3 5420.63,199 5065.82,199.15 4717.48,199.74 4375.3,200.62 4372.8,200.91 4370.89,202.09 4370.16,203.11 &#10;&#9;&#9;4369.57,204.58 4369.42,206.2 4369.42,208.25 4370.01,210.31 4371.33,212.66 4373.39,215.3 4376.18,218.24 4727.46,568.94 &#10;&#9;&#9;4729.81,571.87 4731.72,575.25 4732.75,578.92 4733.19,582.74 4732.75,586.41 4731.72,590.09 4729.81,593.46 4727.46,596.4 &#10;&#9;&#9;3672.14,1651.58 3668.91,1655.54 3666.41,1660.24 3664.94,1665.24 3664.35,1670.38 3664.94,1675.52 3666.41,1680.51 &#10;&#9;&#9;3668.91,1685.06 3672.14,1689.03 4361.05,2378.09 4363.11,2379.7 4365.46,2381.02 4367.95,2381.76 4370.6,2382.05 4373.09,2381.76 &#10;&#9;&#9;4375.74,2381.02 4377.94,2379.7 4380,2378.09 5447.22,1310.72 5448.54,1309.69 5450.01,1308.96 5451.48,1308.37 5453.24,1308.22 &#10;&#9;&#9;5454.85,1308.37 5456.32,1308.81 5457.79,1309.69 5459.11,1310.72 5786.17,1637.63 5787.34,1638.65 5788.66,1639.39 &#10;&#9;&#9;5790.57,1639.83 5792.33,1639.83 5794.24,1639.54 5796,1638.65 5797.33,1637.33 5798.5,1635.86 5799.09,1634.1 5799.38,1632.19 &#10;&#9;&#9;5799.38,217.06 5799.09,213.54" class="st3"/>
	<polygon points="5797.32,1833.43 5796.21,1831.62 5794.98,1830.16 5793.11,1829.09 5792.57,1828.9 5790.57,1828.4 &#10;&#9;&#9;5788.07,1828.54 5786.51,1829.03 5785.18,1829.7 5783.82,1830.75 4810.88,2806.77 4809.85,2807.94 4809.12,2809.41 &#10;&#9;&#9;4808.68,2811.03 4808.38,2812.64 4808.68,2814.26 4809.12,2815.87 4809.85,2817.34 4810.88,2818.52 5783.82,3794.54 &#10;&#9;&#9;5785.69,3795.91 5786.51,3796.29 5788.14,3796.74 5791.45,3796.74 5794.1,3795.71 5795.71,3794.39 5797.03,3792.63 &#10;&#9;&#9;5797.77,3790.57 5798.06,3788.66 5798.06,1836.62 5797.49,1833.74" class="st2"/>
	<polygon points="5791.45,3796.74 5788.14,3796.74 5788.66,3796.89" class="st2"/>
	<polygon points="5785.73,1829.28 5785.18,1829.7 5786.51,1829.03" class="st2"/>
	<polygon points="5786.02,3796.15 5786.51,3796.29 5785.69,3795.91" class="st2"/>
	<polygon points="5797.03,3792.63 5797.77,3790.72 5798.06,3788.66 5797.77,3790.57" class="st2"/>
	<polygon points="5792.92,1828.98 5792.57,1828.9 5793.11,1829.09" class="st2"/>
	<polygon points="5797.49,1833.74 5798.06,1836.62 5797.77,1834.27" class="st2"/>
	<polygon points="5796.59,1832.07 5796.21,1831.62 5797.32,1833.43" class="st2"/>
</g>
</svg>